<svg width="645" height="348" viewBox="0 0 645 348" fill="none" xmlns="http://www.w3.org/2000/svg">
<g filter="url(#filter0_d)">
<rect x="293.005" y="135.585" width="346.914" height="138.765" fill="#222222"/>
</g>
<path d="M376.008 243V172.98H400.812C425.682 172.98 438.117 184.357 438.117 207.111C438.117 218.016 434.715 226.724 427.912 233.234C421.141 239.745 412.108 243 400.812 243H376.008ZM391.779 185.822V230.207H399.592C406.428 230.207 411.783 228.156 415.656 224.055C419.562 219.953 421.516 214.37 421.516 207.307C421.516 200.633 419.579 195.393 415.705 191.584C411.864 187.743 406.46 185.822 399.494 185.822H391.779ZM504.23 243H462.238V172.98H502.619V185.822H478.01V201.398H500.91V214.191H478.01V230.207H504.23V243ZM586.75 172.98L562.629 243H544.758L520.93 172.98H537.922L552.521 221.711C553.303 224.348 553.775 226.675 553.938 228.693H554.23C554.458 226.512 554.963 224.12 555.744 221.516L570.246 172.98H586.75Z" fill="white"/>
<g filter="url(#filter1_d)">
<rect x="307.527" y="82.3373" width="216.216" height="72.6098" fill="white"/>
</g>
<path d="M391.124 142.14C387.071 142.14 383.853 140.417 381.472 136.972C379.091 133.527 377.9 128.84 377.9 122.912C377.9 115.717 379.724 110.245 383.372 106.496C387.02 102.696 392.264 100.796 399.104 100.796C402.955 100.796 407.464 101.404 412.632 102.62V141H402.448L402.676 134.768H402.372C401.055 137.149 399.433 138.973 397.508 140.24C395.633 141.507 393.505 142.14 391.124 142.14ZM393.404 132.792C394.975 132.792 396.52 131.956 398.04 130.284C399.56 128.612 400.979 126.383 402.296 123.596V110.828C400.675 110.372 399.053 110.144 397.432 110.144C394.392 110.144 392.087 111.183 390.516 113.26C388.996 115.337 388.236 118.403 388.236 122.456C388.236 125.648 388.692 128.181 389.604 130.056C390.516 131.88 391.783 132.792 393.404 132.792ZM423.075 101.86H433.791V108.244H434.399C435.868 105.66 437.312 103.76 438.731 102.544C440.2 101.328 442.024 100.72 444.203 100.72C445.115 100.72 445.875 100.821 446.483 101.024L445.343 112.576C444.025 112.221 442.961 112.044 442.151 112.044C440.985 112.044 439.947 112.272 439.035 112.728C438.173 113.184 437.388 113.792 436.679 114.552C436.02 115.312 435.057 116.477 433.791 118.048V141H423.075V101.86ZM468.679 142.14C465.031 142.14 462.194 141.228 460.167 139.404C458.191 137.529 457.203 134.895 457.203 131.5V111.056H451.123V101.86H457.203V93.5C460.801 92.892 464.347 92.436 467.843 92.132V101.86H477.723V111.056H467.843V129.524C467.843 130.588 468.147 131.399 468.755 131.956C469.414 132.513 470.326 132.792 471.491 132.792C472.91 132.792 474.531 132.463 476.355 131.804L478.711 139.86C475.469 141.38 472.125 142.14 468.679 142.14Z" fill="#24160C"/>
<rect x="633.464" y="135.585" width="6.45421" height="138.765" fill="white"/>
<rect width="348" height="348" rx="174" fill="white"/>
<path fill-rule="evenodd" clip-rule="evenodd" d="M173.549 331.772C260.435 331.772 330.87 261.337 330.87 174.451C330.87 87.5646 260.435 17.1295 173.549 17.1295C86.6629 17.1295 16.2278 87.5646 16.2278 174.451C16.2278 261.337 86.6629 331.772 173.549 331.772ZM173.549 272.071C227.463 272.071 271.169 228.365 271.169 174.451C271.169 120.537 227.463 76.8309 173.549 76.8309C119.635 76.8309 75.9291 120.537 75.9291 174.451C75.9291 228.365 119.635 272.071 173.549 272.071Z" fill="#222222"/>
<path fill-rule="evenodd" clip-rule="evenodd" d="M211.467 59.0819H137.244V146.214H211.467V59.0819ZM211.467 202.688H137.244V293.047H211.467V202.688Z" fill="#222222"/>
<defs>
<filter id="filter0_d" x="292.005" y="134.585" width="352.914" height="144.765" filterUnits="userSpaceOnUse" color-interpolation-filters="sRGB">
<feFlood flood-opacity="0" result="BackgroundImageFix"/>
<feColorMatrix in="SourceAlpha" type="matrix" values="0 0 0 0 0 0 0 0 0 0 0 0 0 0 0 0 0 0 127 0" result="hardAlpha"/>
<feOffset dx="2" dy="2"/>
<feGaussianBlur stdDeviation="1.5"/>
<feColorMatrix type="matrix" values="0 0 0 0 0 0 0 0 0 0 0 0 0 0 0 0 0 0 0.25 0"/>
<feBlend mode="normal" in2="BackgroundImageFix" result="effect1_dropShadow"/>
<feBlend mode="normal" in="SourceGraphic" in2="effect1_dropShadow" result="shape"/>
</filter>
<filter id="filter1_d" x="305.527" y="80.3373" width="224.216" height="80.6098" filterUnits="userSpaceOnUse" color-interpolation-filters="sRGB">
<feFlood flood-opacity="0" result="BackgroundImageFix"/>
<feColorMatrix in="SourceAlpha" type="matrix" values="0 0 0 0 0 0 0 0 0 0 0 0 0 0 0 0 0 0 127 0" result="hardAlpha"/>
<feOffset dx="2" dy="2"/>
<feGaussianBlur stdDeviation="2"/>
<feColorMatrix type="matrix" values="0 0 0 0 0 0 0 0 0 0 0 0 0 0 0 0 0 0 0.25 0"/>
<feBlend mode="normal" in2="BackgroundImageFix" result="effect1_dropShadow"/>
<feBlend mode="normal" in="SourceGraphic" in2="effect1_dropShadow" result="shape"/>
</filter>
</defs>
</svg>
