<svg width="383" height="195" viewBox="0 0 383 195" fill="none" xmlns="http://www.w3.org/2000/svg">
<g filter="url(#filter0_d)">
<rect x="163" y="79" width="215" height="86" fill="#24160C"/>
</g>
<path d="M204.766 149V98.5859H222.625C240.531 98.5859 249.484 106.777 249.484 123.16C249.484 131.012 247.035 137.281 242.137 141.969C237.262 146.656 230.758 149 222.625 149H204.766ZM216.121 107.832V139.789H221.746C226.668 139.789 230.523 138.312 233.312 135.359C236.125 132.406 237.531 128.387 237.531 123.301C237.531 118.496 236.137 114.723 233.348 111.98C230.582 109.215 226.691 107.832 221.676 107.832H216.121ZM297.086 149H266.852V98.5859H295.926V107.832H278.207V119.047H294.695V128.258H278.207V139.789H297.086V149ZM356.5 98.5859L339.133 149H326.266L309.109 98.5859H321.344L331.855 133.672C332.418 135.57 332.758 137.246 332.875 138.699H333.086C333.25 137.129 333.613 135.406 334.176 133.531L344.617 98.5859H356.5Z" fill="white"/>
<g filter="url(#filter1_d)">
<rect x="172" y="46" width="134" height="45" fill="white"/>
</g>
<path d="M216.984 84.84C213.997 84.84 211.627 83.5707 209.872 81.032C208.117 78.4933 207.24 75.04 207.24 70.672C207.24 65.3707 208.584 61.3387 211.272 58.576C213.96 55.776 217.824 54.376 222.864 54.376C225.701 54.376 229.024 54.824 232.832 55.72V84H225.328L225.496 79.408H225.272C224.301 81.1627 223.107 82.5067 221.688 83.44C220.307 84.3733 218.739 84.84 216.984 84.84ZM218.664 77.952C219.821 77.952 220.96 77.336 222.08 76.104C223.2 74.872 224.245 73.2293 225.216 71.176V61.768C224.021 61.432 222.827 61.264 221.632 61.264C219.392 61.264 217.693 62.0293 216.536 63.56C215.416 65.0907 214.856 67.3493 214.856 70.336C214.856 72.688 215.192 74.5547 215.864 75.936C216.536 77.28 217.469 77.952 218.664 77.952ZM240.527 55.16H248.423V59.864H248.871C249.953 57.96 251.017 56.56 252.063 55.664C253.145 54.768 254.489 54.32 256.095 54.32C256.767 54.32 257.327 54.3947 257.775 54.544L256.935 63.056C255.964 62.7947 255.18 62.664 254.583 62.664C253.724 62.664 252.959 62.832 252.287 63.168C251.652 63.504 251.073 63.952 250.551 64.512C250.065 65.072 249.356 65.9307 248.423 67.088V84H240.527V55.16ZM274.13 84.84C271.442 84.84 269.352 84.168 267.858 82.824C266.402 81.4427 265.674 79.5013 265.674 77V61.936H261.194V55.16H265.674V49C268.325 48.552 270.938 48.216 273.514 47.992V55.16H280.794V61.936H273.514V75.544C273.514 76.328 273.738 76.9253 274.186 77.336C274.672 77.7467 275.344 77.952 276.202 77.952C277.248 77.952 278.442 77.7093 279.786 77.224L281.522 83.16C279.133 84.28 276.669 84.84 274.13 84.84Z" fill="#24160C"/>
<rect x="374" y="79" width="4" height="86" fill="white"/>
<path fill-rule="evenodd" clip-rule="evenodd" d="M97.5 195C151.348 195 195 151.348 195 97.5C195 43.6522 151.348 0 97.5 0C43.6522 0 0 43.6522 0 97.5C0 151.348 43.6522 195 97.5 195ZM97.5 158C130.913 158 158 130.913 158 97.5C158 64.0868 130.913 37 97.5 37C64.0868 37 37 64.0868 37 97.5C37 130.913 64.0868 158 97.5 158Z" fill="#24160C"/>
<path fill-rule="evenodd" clip-rule="evenodd" d="M121 26H75V80H121V26ZM121 115H75V171H121V115Z" fill="#24160C"/>
<defs>
<filter id="filter0_d" x="162" y="78" width="221" height="92" filterUnits="userSpaceOnUse" color-interpolation-filters="sRGB">
<feFlood flood-opacity="0" result="BackgroundImageFix"/>
<feColorMatrix in="SourceAlpha" type="matrix" values="0 0 0 0 0 0 0 0 0 0 0 0 0 0 0 0 0 0 127 0"/>
<feOffset dx="2" dy="2"/>
<feGaussianBlur stdDeviation="1.5"/>
<feColorMatrix type="matrix" values="0 0 0 0 0 0 0 0 0 0 0 0 0 0 0 0 0 0 0.25 0"/>
<feBlend mode="normal" in2="BackgroundImageFix" result="effect1_dropShadow"/>
<feBlend mode="normal" in="SourceGraphic" in2="effect1_dropShadow" result="shape"/>
</filter>
<filter id="filter1_d" x="170" y="44" width="142" height="53" filterUnits="userSpaceOnUse" color-interpolation-filters="sRGB">
<feFlood flood-opacity="0" result="BackgroundImageFix"/>
<feColorMatrix in="SourceAlpha" type="matrix" values="0 0 0 0 0 0 0 0 0 0 0 0 0 0 0 0 0 0 127 0"/>
<feOffset dx="2" dy="2"/>
<feGaussianBlur stdDeviation="2"/>
<feColorMatrix type="matrix" values="0 0 0 0 0 0 0 0 0 0 0 0 0 0 0 0 0 0 0.25 0"/>
<feBlend mode="normal" in2="BackgroundImageFix" result="effect1_dropShadow"/>
<feBlend mode="normal" in="SourceGraphic" in2="effect1_dropShadow" result="shape"/>
</filter>
</defs>
</svg>
