<svg width="626" height="371" viewBox="0 0 626 371" fill="none" xmlns="http://www.w3.org/2000/svg">
<g clip-path="url(#clip0)">
<rect width="626" height="371" fill="#11263F"/>
<rect x="-61.5525" y="11" width="801.024" height="212.026" transform="rotate(12.9312 -61.5525 11)" fill="#1E3456" fill-opacity="0.81"/>
<g filter="url(#filter0_d)">
<path d="M343.5 -56L819.5 -65V414H202L343.5 -56Z" fill="black" fill-opacity="0.06"/>
</g>
<rect x="332.761" y="-19.7746" width="3.28678" height="444" transform="rotate(16.7863 332.761 -19.7746)" fill="#FEBA37"/>
<path d="M399.037 175H390.154L388.091 169.422H376.607L374.404 175H365.615L377.919 143.008H386.99L399.037 175ZM385.841 163.094L382.396 152.898L378.904 163.094H385.841ZM429.798 175H419.438L411.517 162.719V175H403.196V143.008H416.134C419.915 143.008 422.712 144.141 424.524 146.406C425.993 148.234 426.727 150.383 426.727 152.852C426.727 155.68 425.884 157.938 424.196 159.625C423.118 160.703 421.634 161.453 419.743 161.875L429.798 175ZM418.079 153.32C418.079 152.18 417.665 151.219 416.837 150.438C416.056 149.703 414.798 149.336 413.063 149.336H411.517V157.328H413.063C414.813 157.328 416.071 156.961 416.837 156.227C417.665 155.43 418.079 154.461 418.079 153.32ZM452.731 149.969H445.84V175H437.52V149.969H430.747V143.008H452.731V149.969ZM465.211 175H456.891V143.008H465.211V175ZM502.324 175H491.542L480.738 161.125V175H472.417V143.008H480.738V156.203L490.886 143.008H501.152L488.449 158.148L502.324 175ZM524.718 175H506.507V143.008H524.718V149.969H514.827V155.383H524.179V162.344H514.827V168.039H524.718V175ZM548.776 175H530.471V143.008H538.792V168.039H548.776V175ZM420.053 230.906C420.053 233.297 419.374 235.242 418.014 236.742C416.046 238.914 413.046 240 409.014 240H395.678V208.008H408.053C414.053 208.008 417.053 210.789 417.053 216.352C417.053 218.023 416.725 219.422 416.069 220.547C415.522 221.5 414.678 222.312 413.538 222.984C416.1 223.516 417.85 224.539 418.788 226.055C419.632 227.445 420.053 229.062 420.053 230.906ZM409.366 217.453C409.366 216 408.71 215.039 407.397 214.57C406.928 214.414 406.303 214.336 405.522 214.336H403.999V220.594H405.522C406.96 220.594 407.991 220.242 408.616 219.539C409.116 218.977 409.366 218.281 409.366 217.453ZM411.733 230.344C411.733 228.484 410.772 227.391 408.85 227.062C408.241 226.969 407.194 226.922 405.71 226.922H403.999V233.672H405.85C407.975 233.672 409.46 233.422 410.303 232.922C411.257 232.359 411.733 231.5 411.733 230.344ZM444.135 240H425.83V208.008H434.151V233.039H444.135V240ZM482.888 224.109C482.888 228.453 481.443 232.266 478.552 235.547C475.256 239.281 470.795 241.148 465.17 241.148C459.56 241.148 455.107 239.281 451.81 235.547C448.92 232.266 447.474 228.453 447.474 224.109C447.474 222.125 447.865 220.094 448.646 218.016C449.427 215.922 450.474 214.133 451.787 212.648C455.084 208.914 459.545 207.047 465.17 207.047C470.795 207.047 475.256 208.914 478.552 212.648C481.443 215.93 482.888 219.75 482.888 224.109ZM474.24 224.109C474.24 221.859 473.521 219.914 472.084 218.273C470.24 216.18 467.935 215.133 465.17 215.133C463.263 215.133 461.537 215.672 459.99 216.75C458.443 217.812 457.342 219.234 456.685 221.016C456.31 222.031 456.123 223.062 456.123 224.109C456.123 226.266 456.842 228.195 458.279 229.898C460.06 232.008 462.357 233.062 465.17 233.062C467.982 233.062 470.287 232.016 472.084 229.922C473.521 228.25 474.24 226.312 474.24 224.109ZM520.728 222.234C520.728 225.703 520.337 228.531 519.556 230.719C518.368 234.047 516.408 236.609 513.673 238.406C511.033 240.125 507.908 240.984 504.298 240.984C498.423 240.984 493.915 238.984 490.775 234.984C488.4 231.953 487.212 228.336 487.212 224.133C487.212 219.477 488.603 215.562 491.384 212.391C494.54 208.781 498.947 206.977 504.603 206.977C508.384 206.977 511.587 207.945 514.212 209.883C516.087 211.258 517.689 213.289 519.017 215.977L511.118 219.234C510.447 217.734 509.665 216.609 508.775 215.859C507.493 214.797 505.97 214.266 504.204 214.266C500.595 214.266 498.079 216.133 496.658 219.867C496.126 221.242 495.861 222.664 495.861 224.133C495.861 227.18 496.822 229.719 498.743 231.75C500.165 233.266 502.064 234.023 504.439 234.023C506.548 234.023 508.22 233.406 509.454 232.172C510.267 231.359 510.798 230.156 511.048 228.562H504.228V222.234H520.728Z" fill="#FEBA37"/>
<path d="M148.03 69.8637L58.9634 77.4567C55.8339 77.8073 52.9694 79.3809 50.9922 81.8356C49.0151 84.2903 48.085 87.4278 48.4041 90.5663L61.4859 244.018C61.7026 247.165 63.1504 250.1 65.5146 252.184C67.8787 254.269 70.9683 255.335 74.1119 255.151L202.961 244.166C206.091 243.816 208.955 242.242 210.932 239.788C212.909 237.333 213.84 234.195 213.52 231.057L203.69 115.746L148.03 69.8637ZM147.262 127.46L143.388 82.0214L193.505 123.518L147.262 127.46Z" fill="#FEBA37"/>
<path d="M164.251 246.712L210.505 189.889L183.515 167.919L137.261 224.742C136.624 225.525 136.212 226.466 136.066 227.465L133.336 257.128L161.822 248.435C162.773 248.091 163.614 247.494 164.251 246.712V246.712ZM225.437 171.545C227.303 169.251 228.182 166.311 227.881 163.37C227.579 160.429 226.122 157.728 223.829 155.861L214.131 147.967C211.838 146.101 208.897 145.222 205.956 145.523C203.015 145.825 200.314 147.282 198.447 149.575L190.553 159.273L217.543 181.242L225.437 171.545Z" fill="white"/>
<path d="M101.728 181.135C101.345 181.589 100.759 181.955 99.9699 182.233C99.2131 182.538 98.2817 182.738 97.1758 182.833C96.0698 182.927 95.0095 182.852 93.9951 182.607C92.9806 182.362 92.106 181.639 91.3713 180.437L86.1603 171.758C85.6329 170.87 85.1555 170.037 84.728 169.261C84.2979 168.454 83.8278 167.531 83.3175 166.491L83.0523 166.558C83.3095 168.162 83.5095 169.801 83.6522 171.475C83.8248 173.147 83.9799 174.789 84.1175 176.404L84.7099 183.353C84.3888 183.471 83.8883 183.604 83.2084 183.752C82.5584 183.898 81.9046 183.999 81.247 184.055C80.5894 184.111 80.0027 184.116 79.4869 184.07C78.9711 184.023 78.5373 183.88 78.1856 183.639C77.8338 183.398 77.5492 183.06 77.3316 182.627C77.1115 182.164 76.9696 181.559 76.9059 180.812L74.9947 158.393C75.3622 157.76 75.9666 157.257 76.808 156.884C77.6494 156.511 78.5633 156.283 79.5497 156.198C80.6557 156.104 81.7172 156.194 82.7342 156.469C83.7785 156.711 84.6518 157.419 85.3542 158.594L90.61 167.269C91.1374 168.157 91.6161 169.005 92.0462 169.811C92.4737 170.588 92.9425 171.496 93.4527 172.537L93.6731 172.473C93.4159 170.869 93.2036 169.261 93.0361 167.649C92.8686 166.038 92.716 164.425 92.5784 162.811L91.9592 155.547C92.2804 155.429 92.7659 155.298 93.4159 155.152C94.0958 155.004 94.7645 154.901 95.4221 154.845C96.7374 154.733 97.7591 154.887 98.4874 155.307C99.2131 155.696 99.6384 156.624 99.7633 158.088L101.728 181.135ZM106.112 158.541C106.002 157.255 106.289 156.207 106.973 155.396C107.656 154.585 108.641 154.125 109.926 154.015L124.722 152.754C124.96 153.065 125.176 153.483 125.371 154.008C125.596 154.531 125.735 155.091 125.786 155.689C125.882 156.825 125.697 157.654 125.23 158.175C124.792 158.694 124.17 158.988 123.363 159.057L113.902 159.864L114.258 164.034L124.346 163.174C124.583 163.485 124.8 163.903 124.995 164.428C125.218 164.921 125.354 165.466 125.405 166.064C125.502 167.2 125.332 168.027 124.894 168.546C124.457 169.065 123.835 169.359 123.028 169.428L114.778 170.132L115.179 174.839L126.702 173.857C126.939 174.168 127.156 174.586 127.351 175.111C127.576 175.634 127.714 176.195 127.765 176.792C127.862 177.928 127.678 178.772 127.213 179.323C126.776 179.842 126.153 180.136 125.346 180.205L112.254 181.321C110.969 181.431 109.92 181.144 109.109 180.46C108.298 179.777 107.838 178.792 107.729 177.507L106.112 158.541ZM143.889 157.804C144.205 157.627 144.699 157.419 145.371 157.181C146.071 156.911 146.779 156.745 147.497 156.684C148.752 156.577 149.815 156.682 150.685 156.999C151.553 157.286 152.107 157.781 152.347 158.483C152.78 159.681 153.177 160.806 153.538 161.859C153.926 162.88 154.297 163.872 154.65 164.835C155.001 165.769 155.336 166.704 155.657 167.64C156.008 168.574 156.347 169.553 156.675 170.579L156.899 170.56C157.013 168.714 157.104 166.96 157.173 165.298C157.24 163.606 157.295 161.96 157.34 160.361C157.381 158.731 157.426 157.132 157.473 155.562C157.517 153.963 157.56 152.348 157.602 150.719C158.654 149.997 159.808 149.582 161.064 149.475C162.17 149.381 163.146 149.539 163.994 149.948C164.842 150.357 165.314 151.13 165.411 152.266C165.467 152.924 165.473 153.872 165.428 155.11C165.41 156.316 165.346 157.676 165.234 159.191C165.152 160.703 165.032 162.294 164.873 163.964C164.714 165.634 164.534 167.23 164.333 168.752C164.131 170.275 163.904 171.664 163.649 172.92C163.422 174.144 163.188 175.097 162.945 175.78C162.532 176.237 161.829 176.643 160.836 176.999C159.842 177.355 158.808 177.578 157.731 177.67C156.327 177.79 155.116 177.712 154.099 177.438C153.109 177.131 152.48 176.642 152.212 175.973C151.722 174.81 151.182 173.426 150.594 171.82C150.005 170.214 149.373 168.447 148.696 166.517C148.444 168.496 148.172 170.431 147.882 172.322C147.591 174.214 147.321 175.818 147.072 177.134C146.66 177.59 146.016 177.991 145.143 178.337C144.269 178.682 143.294 178.901 142.218 178.993C140.873 179.107 139.632 179.032 138.495 178.768C137.386 178.471 136.638 177.993 136.25 177.334C135.935 176.818 135.569 176.052 135.151 175.034C134.76 173.983 134.343 172.799 133.9 171.482C133.454 170.135 132.984 168.685 132.49 167.131C132.026 165.575 131.577 164.017 131.143 162.459C130.739 160.897 130.354 159.38 129.987 157.905C129.618 156.401 129.32 155.027 129.094 153.781C129.479 153.357 130.031 152.949 130.751 152.556C131.47 152.164 132.263 151.93 133.13 151.857C134.266 151.76 135.214 151.935 135.975 152.382C136.763 152.796 137.296 153.579 137.575 154.729C138.313 157.738 138.918 160.245 139.391 162.252C139.893 164.257 140.289 165.909 140.581 167.209C140.9 168.477 141.134 169.465 141.285 170.175C141.436 170.885 141.574 171.445 141.7 171.856L141.924 171.837C142.091 170.618 142.251 169.491 142.403 168.454C142.556 167.417 142.708 166.38 142.861 165.344C143.04 164.275 143.215 163.146 143.385 161.957C143.552 160.738 143.72 159.354 143.889 157.804Z" fill="white"/>
</g>
<defs>
<filter id="filter0_d" x="183" y="-73" width="643.5" height="505" filterUnits="userSpaceOnUse" color-interpolation-filters="sRGB">
<feFlood flood-opacity="0" result="BackgroundImageFix"/>
<feColorMatrix in="SourceAlpha" type="matrix" values="0 0 0 0 0 0 0 0 0 0 0 0 0 0 0 0 0 0 127 0" result="hardAlpha"/>
<feOffset dx="-6" dy="5"/>
<feGaussianBlur stdDeviation="6.5"/>
<feColorMatrix type="matrix" values="0 0 0 0 0 0 0 0 0 0 0 0 0 0 0 0 0 0 0.25 0"/>
<feBlend mode="normal" in2="BackgroundImageFix" result="effect1_dropShadow"/>
<feBlend mode="normal" in="SourceGraphic" in2="effect1_dropShadow" result="shape"/>
</filter>
<clipPath id="clip0">
<rect width="626" height="371" fill="white"/>
</clipPath>
</defs>
</svg>
