<svg width="626" height="371" viewBox="0 0 626 371" fill="none" xmlns="http://www.w3.org/2000/svg">
<g clip-path="url(#clip0)">
<rect width="626" height="371" fill="#11263F"/>
<rect x="-61.5525" y="11" width="801.024" height="212.026" transform="rotate(12.9312 -61.5525 11)" fill="#1E3456" fill-opacity="0.81"/>
<g filter="url(#filter0_d)">
<path d="M343.5 -56L819.5 -65V414H202L343.5 -56Z" fill="black" fill-opacity="0.06"/>
</g>
<rect x="332.761" y="-19.7746" width="3.28678" height="444" transform="rotate(16.7863 332.761 -19.7746)" fill="white" fill-opacity="0.52"/>
<path d="M391.466 175.406C391.466 180.812 389.091 184.336 384.341 185.977C382.685 186.555 380.904 186.844 378.997 186.844C374.997 186.844 371.287 185.633 367.865 183.211L371.427 176.508C373.927 178.758 376.372 179.883 378.763 179.883C379.841 179.883 380.755 179.633 381.505 179.133C382.38 178.57 382.818 177.773 382.818 176.742C382.818 175.805 382.333 175.023 381.365 174.398C380.646 173.93 379.435 173.453 377.732 172.969C375.669 172.359 374.372 171.938 373.841 171.703C372.997 171.344 372.279 170.922 371.685 170.438C369.982 169.031 369.13 166.906 369.13 164.062C369.13 161.094 370.013 158.633 371.779 156.68C373.841 154.383 376.591 153.234 380.029 153.234C383.482 153.234 386.865 154.102 390.177 155.836L386.849 162.305C385.037 160.898 383.208 160.195 381.365 160.195C380.474 160.195 379.677 160.422 378.974 160.875C378.177 161.391 377.779 162.078 377.779 162.938C377.779 163.781 378.302 164.508 379.349 165.117C379.818 165.398 381.224 165.883 383.568 166.57C386.505 167.43 388.599 168.648 389.849 170.227C390.927 171.57 391.466 173.297 391.466 175.406ZM431.181 170.109C431.181 174.453 429.735 178.266 426.845 181.547C423.548 185.281 419.087 187.148 413.462 187.148C407.852 187.148 403.399 185.281 400.102 181.547C397.212 178.266 395.767 174.453 395.767 170.109C395.767 168.125 396.157 166.094 396.938 164.016C397.72 161.922 398.767 160.133 400.079 158.648C403.376 154.914 407.837 153.047 413.462 153.047C419.087 153.047 423.548 154.914 426.845 158.648C429.735 161.93 431.181 165.75 431.181 170.109ZM422.532 170.109C422.532 167.859 421.813 165.914 420.376 164.273C418.532 162.18 416.227 161.133 413.462 161.133C411.556 161.133 409.829 161.672 408.282 162.75C406.735 163.812 405.634 165.234 404.977 167.016C404.602 168.031 404.415 169.062 404.415 170.109C404.415 172.266 405.134 174.195 406.571 175.898C408.352 178.008 410.649 179.062 413.462 179.062C416.274 179.062 418.579 178.016 420.376 175.922C421.813 174.25 422.532 172.312 422.532 170.109ZM464.872 172.453C464.872 174.375 464.715 176.016 464.403 177.375C463.918 179.484 462.762 181.406 460.934 183.141C458.34 185.594 454.872 186.82 450.528 186.82C446.106 186.82 442.653 185.57 440.168 183.07C438.856 181.758 437.957 180.109 437.473 178.125C437.129 176.719 436.957 174.828 436.957 172.453V154.008H445.278V171.328C445.278 172.719 445.301 173.758 445.348 174.445C445.504 176.617 446.497 178.133 448.325 178.992C449.075 179.352 449.903 179.531 450.809 179.531C452.84 179.531 454.372 178.82 455.403 177.398C456.168 176.352 456.551 174.328 456.551 171.328V154.008H464.872V172.453ZM498.68 186H488.32L480.398 173.719V186H472.078V154.008H485.016C488.797 154.008 491.594 155.141 493.406 157.406C494.875 159.234 495.609 161.383 495.609 163.852C495.609 166.68 494.766 168.938 493.078 170.625C492 171.703 490.516 172.453 488.625 172.875L498.68 186ZM486.961 164.32C486.961 163.18 486.547 162.219 485.719 161.438C484.938 160.703 483.68 160.336 481.945 160.336H480.398V168.328H481.945C483.695 168.328 484.953 167.961 485.719 167.227C486.547 166.43 486.961 165.461 486.961 164.32ZM525.691 185.25C522.972 186.328 520.457 186.867 518.144 186.867C514.113 186.867 510.503 185.578 507.316 183C503.253 179.703 501.222 175.406 501.222 170.109C501.222 164.797 503.253 160.492 507.316 157.195C510.503 154.617 514.136 153.328 518.214 153.328C520.433 153.328 522.925 153.867 525.691 154.945V164.906C524.91 163.953 524.113 163.234 523.3 162.75C521.816 161.859 520.222 161.414 518.519 161.414C516.363 161.414 514.488 162.062 512.894 163.359C510.878 165 509.871 167.25 509.871 170.109C509.871 172.953 510.878 175.195 512.894 176.836C514.488 178.133 516.363 178.781 518.519 178.781C520.222 178.781 521.816 178.336 523.3 177.445C524.097 176.977 524.894 176.258 525.691 175.289V185.25ZM549.655 186H531.444V154.008H549.655V160.969H539.765V166.383H549.116V173.344H539.765V179.039H549.655V186ZM422.444 250.25C419.725 251.328 417.21 251.867 414.897 251.867C410.866 251.867 407.257 250.578 404.069 248C400.007 244.703 397.975 240.406 397.975 235.109C397.975 229.797 400.007 225.492 404.069 222.195C407.257 219.617 410.889 218.328 414.967 218.328C417.186 218.328 419.678 218.867 422.444 219.945V229.906C421.663 228.953 420.866 228.234 420.053 227.75C418.569 226.859 416.975 226.414 415.272 226.414C413.116 226.414 411.241 227.062 409.647 228.359C407.632 230 406.624 232.25 406.624 235.109C406.624 237.953 407.632 240.195 409.647 241.836C411.241 243.133 413.116 243.781 415.272 243.781C416.975 243.781 418.569 243.336 420.053 242.445C420.85 241.977 421.647 241.258 422.444 240.289V250.25ZM462.182 235.109C462.182 239.453 460.737 243.266 457.846 246.547C454.549 250.281 450.088 252.148 444.463 252.148C438.854 252.148 434.401 250.281 431.104 246.547C428.213 243.266 426.768 239.453 426.768 235.109C426.768 233.125 427.158 231.094 427.94 229.016C428.721 226.922 429.768 225.133 431.08 223.648C434.377 219.914 438.838 218.047 444.463 218.047C450.088 218.047 454.549 219.914 457.846 223.648C460.737 226.93 462.182 230.75 462.182 235.109ZM453.533 235.109C453.533 232.859 452.815 230.914 451.377 229.273C449.533 227.18 447.229 226.133 444.463 226.133C442.557 226.133 440.83 226.672 439.283 227.75C437.737 228.812 436.635 230.234 435.979 232.016C435.604 233.031 435.416 234.062 435.416 235.109C435.416 237.266 436.135 239.195 437.572 240.898C439.354 243.008 441.651 244.062 444.463 244.062C447.276 244.062 449.58 243.016 451.377 240.922C452.815 239.25 453.533 237.312 453.533 235.109ZM496.013 234.992C496.013 238.32 495.006 241.406 492.99 244.25C490.99 247.078 488.427 249.039 485.302 250.133C483.646 250.711 481.959 251 480.24 251H467.959V219.008H480.24C483.24 219.008 486.021 219.844 488.584 221.516C491.099 223.141 493.029 225.312 494.373 228.031C495.467 230.281 496.013 232.602 496.013 234.992ZM487.365 234.992C487.365 232.789 486.748 230.867 485.513 229.227C483.873 227.055 481.427 225.969 478.177 225.969H476.279V244.039H478.177C481.443 244.039 483.888 242.953 485.513 240.781C486.748 239.125 487.365 237.195 487.365 234.992ZM520.025 251H501.814V219.008H520.025V225.969H510.134V231.383H519.486V238.344H510.134V244.039H520.025V251Z" fill="white"/>
<g clip-path="url(#clip1)">
<path fill-rule="evenodd" clip-rule="evenodd" d="M145.057 70.7646C146.831 70.7878 148.584 71.1604 150.214 71.861C151.845 72.5617 153.321 73.5768 154.56 74.8482C155.798 76.1197 156.773 77.6227 157.43 79.2712C158.087 80.9198 158.413 82.6817 158.389 84.4562L156.066 255.333C156.019 258.917 154.55 262.335 151.982 264.835C149.414 267.336 145.958 268.714 142.375 268.666C138.791 268.618 135.373 267.149 132.873 264.582C130.372 262.014 128.995 258.558 129.042 254.974L131.365 84.0974C131.388 82.3228 131.761 80.5702 132.461 78.9397C133.162 77.3091 134.177 75.8326 135.449 74.5945C136.72 73.3563 138.223 72.3808 139.872 71.7237C141.52 71.0666 143.282 70.7407 145.057 70.7646ZM73.2581 139.583C76.44 141.229 78.8379 144.072 79.9245 147.485C81.011 150.899 80.6973 154.605 79.0522 157.787L58.9285 196.703L97.8443 216.827C99.4519 217.623 100.885 218.731 102.059 220.087C103.234 221.443 104.127 223.019 104.686 224.724C105.245 226.429 105.459 228.227 105.315 230.016C105.171 231.804 104.673 233.545 103.849 235.139C103.025 236.732 101.892 238.146 100.516 239.297C99.1395 240.448 97.5479 241.313 95.8338 241.842C94.1197 242.372 92.3174 242.554 90.5319 242.379C88.7465 242.205 87.0138 241.676 85.4348 240.824L34.5202 214.496C31.3383 212.85 28.9404 210.007 27.8538 206.594C26.7672 203.18 27.081 199.475 28.726 196.292L55.0545 145.378C56.7005 142.196 59.5428 139.798 62.9565 138.711C66.3702 137.625 70.0757 137.938 73.2581 139.583ZM183.793 104.401C185.439 101.219 188.281 98.8207 191.695 97.7342C195.109 96.6476 198.814 96.9613 201.997 98.6064L252.911 124.935C256.093 126.581 258.491 129.423 259.578 132.837C260.664 136.251 260.351 139.956 258.705 143.138L232.377 194.053C231.581 195.661 230.472 197.094 229.117 198.268C227.761 199.443 226.184 200.336 224.48 200.895C222.775 201.454 220.976 201.668 219.188 201.524C217.4 201.38 215.658 200.882 214.065 200.058C212.471 199.234 211.058 198.101 209.907 196.724C208.756 195.348 207.891 193.757 207.361 192.043C206.832 190.329 206.65 188.526 206.824 186.741C206.999 184.955 207.528 183.223 208.379 181.644L228.503 142.728L189.587 122.604C186.405 120.958 184.007 118.116 182.921 114.702C181.834 111.288 182.148 107.583 183.793 104.401Z" fill="white"/>
</g>
</g>
<defs>
<filter id="filter0_d" x="183" y="-73" width="643.5" height="505" filterUnits="userSpaceOnUse" color-interpolation-filters="sRGB">
<feFlood flood-opacity="0" result="BackgroundImageFix"/>
<feColorMatrix in="SourceAlpha" type="matrix" values="0 0 0 0 0 0 0 0 0 0 0 0 0 0 0 0 0 0 127 0" result="hardAlpha"/>
<feOffset dx="-6" dy="5"/>
<feGaussianBlur stdDeviation="6.5"/>
<feColorMatrix type="matrix" values="0 0 0 0 0 0 0 0 0 0 0 0 0 0 0 0 0 0 0.25 0"/>
<feBlend mode="normal" in2="BackgroundImageFix" result="effect1_dropShadow"/>
<feBlend mode="normal" in="SourceGraphic" in2="effect1_dropShadow" result="shape"/>
</filter>
<clipPath id="clip0">
<rect width="626" height="371" fill="white"/>
</clipPath>
<clipPath id="clip1">
<rect width="270.205" height="270.205" fill="white" transform="translate(-26 81.954) rotate(-17.6561)"/>
</clipPath>
</defs>
</svg>
