<svg width="626" height="371" viewBox="0 0 626 371" fill="none" xmlns="http://www.w3.org/2000/svg">
<g clip-path="url(#clip0)">
<rect width="626" height="371" fill="#11263F"/>
<rect x="-61.5525" y="11" width="801.024" height="212.026" transform="rotate(12.9312 -61.5525 11)" fill="#1E3456" fill-opacity="0.81"/>
<g filter="url(#filter0_d)">
<path d="M343.5 -56L819.5 -65V414H202L343.5 -56Z" fill="black" fill-opacity="0.06"/>
</g>
<rect x="332.761" y="-19.7746" width="3.28678" height="444" transform="rotate(16.7863 332.761 -19.7746)" fill="#49FFD3" fill-opacity="0.52"/>
<path d="M349.578 149.969H342.687V175H334.367V149.969H327.593V143.008H349.578V149.969ZM384.136 175H375.253L373.191 169.422H361.706L359.503 175H350.714L363.019 143.008H372.089L384.136 175ZM370.941 163.094L367.495 152.898L364.003 163.094H370.941ZM396.616 175H388.296V143.008H396.616V175ZM422.127 175H403.823V143.008H412.143V168.039H422.127V175ZM472.201 143.008L461.982 175H453.498L447.662 156.461L441.545 175H433.084L423.545 143.008H432.24L437.795 163.68L444.568 143.008H451.177L457.482 163.68L463.529 143.008H472.201ZM484.353 175H476.033V143.008H484.353V175ZM523.505 175H515.184L499.88 155.406V175H491.559V143.008H499.88L515.184 162.578V143.008H523.505V175ZM558.766 158.992C558.766 162.32 557.758 165.406 555.742 168.25C553.742 171.078 551.18 173.039 548.055 174.133C546.399 174.711 544.711 175 542.992 175H530.711V143.008H542.992C545.992 143.008 548.774 143.844 551.336 145.516C553.852 147.141 555.782 149.312 557.125 152.031C558.219 154.281 558.766 156.602 558.766 158.992ZM550.117 158.992C550.117 156.789 549.5 154.867 548.266 153.227C546.625 151.055 544.18 149.969 540.93 149.969H539.032V168.039H540.93C544.196 168.039 546.641 166.953 548.266 164.781C549.5 163.125 550.117 161.195 550.117 158.992ZM302.973 239.25C300.254 240.328 297.738 240.867 295.426 240.867C291.395 240.867 287.785 239.578 284.598 237C280.535 233.703 278.504 229.406 278.504 224.109C278.504 218.797 280.535 214.492 284.598 211.195C287.785 208.617 291.418 207.328 295.496 207.328C297.715 207.328 300.207 207.867 302.973 208.945V218.906C302.192 217.953 301.395 217.234 300.582 216.75C299.098 215.859 297.504 215.414 295.801 215.414C293.645 215.414 291.77 216.062 290.176 217.359C288.16 219 287.152 221.25 287.152 224.109C287.152 226.953 288.16 229.195 290.176 230.836C291.77 232.133 293.645 232.781 295.801 232.781C297.504 232.781 299.098 232.336 300.582 231.445C301.379 230.977 302.176 230.258 302.973 229.289V239.25ZM342.711 224.109C342.711 228.453 341.265 232.266 338.375 235.547C335.078 239.281 330.617 241.148 324.992 241.148C319.382 241.148 314.929 239.281 311.632 235.547C308.742 232.266 307.297 228.453 307.297 224.109C307.297 222.125 307.687 220.094 308.468 218.016C309.25 215.922 310.297 214.133 311.609 212.648C314.906 208.914 319.367 207.047 324.992 207.047C330.617 207.047 335.078 208.914 338.375 212.648C341.265 215.93 342.711 219.75 342.711 224.109ZM334.062 224.109C334.062 221.859 333.343 219.914 331.906 218.273C330.062 216.18 327.757 215.133 324.992 215.133C323.086 215.133 321.359 215.672 319.812 216.75C318.265 217.812 317.164 219.234 316.507 221.016C316.132 222.031 315.945 223.062 315.945 224.109C315.945 226.266 316.664 228.195 318.101 229.898C319.882 232.008 322.179 233.062 324.992 233.062C327.804 233.062 330.109 232.016 331.906 229.922C333.343 228.25 334.062 226.312 334.062 224.109ZM387.159 240H378.839L376.472 221.578L368.737 240H365.433L358.05 221.578L355.331 240H347.058L352.495 208.008H360.698L367.191 225.07L374.058 208.008H382.331L387.159 240ZM417.288 218.555C417.288 221.445 416.608 223.836 415.249 225.727C413.483 228.18 410.553 229.406 406.46 229.406H401.257V240H392.936V208.008H406.178C409.944 208.008 412.803 209.109 414.757 211.312C416.444 213.203 417.288 215.617 417.288 218.555ZM408.639 218.648C408.639 217.461 408.288 216.516 407.585 215.812C406.897 215.094 405.717 214.734 404.046 214.734H401.257V222.68H404.022C405.819 222.68 407.053 222.289 407.725 221.508C408.335 220.805 408.639 219.852 408.639 218.648ZM456.182 224.109C456.182 228.453 454.737 232.266 451.846 235.547C448.549 239.281 444.088 241.148 438.463 241.148C432.854 241.148 428.401 239.281 425.104 235.547C422.213 232.266 420.768 228.453 420.768 224.109C420.768 222.125 421.158 220.094 421.94 218.016C422.721 215.922 423.768 214.133 425.08 212.648C428.377 208.914 432.838 207.047 438.463 207.047C444.088 207.047 448.549 208.914 451.846 212.648C454.737 215.93 456.182 219.75 456.182 224.109ZM447.533 224.109C447.533 221.859 446.815 219.914 445.377 218.273C443.533 216.18 441.229 215.133 438.463 215.133C436.557 215.133 434.83 215.672 433.283 216.75C431.737 217.812 430.635 219.234 429.979 221.016C429.604 222.031 429.416 223.062 429.416 224.109C429.416 226.266 430.135 228.195 431.572 229.898C433.354 232.008 435.651 233.062 438.463 233.062C441.276 233.062 443.58 232.016 445.377 229.922C446.815 228.25 447.533 226.312 447.533 224.109ZM493.904 240H485.584L470.279 220.406V240H461.959V208.008H470.279L485.584 227.578V208.008H493.904V240ZM519.322 240H501.111V208.008H519.322V214.969H509.431V220.383H518.783V227.344H509.431V233.039H519.322V240ZM557.02 240H548.7L533.395 220.406V240H525.075V208.008H533.395L548.7 227.578V208.008H557.02V240ZM583.188 214.969H576.297V240H567.977V214.969H561.203V208.008H583.188V214.969ZM609.519 229.406C609.519 234.812 607.144 238.336 602.394 239.977C600.738 240.555 598.957 240.844 597.051 240.844C593.051 240.844 589.34 239.633 585.918 237.211L589.48 230.508C591.98 232.758 594.426 233.883 596.816 233.883C597.894 233.883 598.808 233.633 599.558 233.133C600.433 232.57 600.871 231.773 600.871 230.742C600.871 229.805 600.387 229.023 599.418 228.398C598.699 227.93 597.488 227.453 595.785 226.969C593.723 226.359 592.426 225.938 591.894 225.703C591.051 225.344 590.332 224.922 589.738 224.438C588.035 223.031 587.183 220.906 587.183 218.062C587.183 215.094 588.066 212.633 589.832 210.68C591.894 208.383 594.644 207.234 598.082 207.234C601.535 207.234 604.918 208.102 608.23 209.836L604.902 216.305C603.09 214.898 601.262 214.195 599.418 214.195C598.527 214.195 597.73 214.422 597.027 214.875C596.23 215.391 595.832 216.078 595.832 216.938C595.832 217.781 596.355 218.508 597.402 219.117C597.871 219.398 599.277 219.883 601.621 220.57C604.558 221.43 606.652 222.648 607.902 224.227C608.98 225.57 609.519 227.297 609.519 229.406Z" fill="#16CFC2"/>
<path fill-rule="evenodd" clip-rule="evenodd" d="M72.8636 152.831C75.1104 117.35 93.179 96.5036 127.07 90.2912C177.906 80.9726 191.241 117.962 217.82 119.675C235.544 120.813 249.203 111.737 258.796 92.4467C256.548 127.92 238.482 148.763 204.597 154.977C153.758 164.296 140.425 127.307 113.846 125.594C96.1225 124.456 82.4637 133.532 72.8696 152.822L72.8636 152.831ZM23.3211 240.809C25.5819 205.326 43.6504 184.48 77.5268 178.27C128.363 168.951 141.699 205.94 168.278 207.653C186.001 208.792 199.66 199.716 209.254 180.425C207.009 215.905 188.94 236.752 155.048 242.964C104.212 252.283 90.8764 215.294 64.2974 213.581C46.5737 212.443 32.9149 221.519 23.3211 240.809V240.809Z" fill="url(#paint0_linear)"/>
</g>
<defs>
<filter id="filter0_d" x="183" y="-73" width="643.5" height="505" filterUnits="userSpaceOnUse" color-interpolation-filters="sRGB">
<feFlood flood-opacity="0" result="BackgroundImageFix"/>
<feColorMatrix in="SourceAlpha" type="matrix" values="0 0 0 0 0 0 0 0 0 0 0 0 0 0 0 0 0 0 127 0" result="hardAlpha"/>
<feOffset dx="-6" dy="5"/>
<feGaussianBlur stdDeviation="6.5"/>
<feColorMatrix type="matrix" values="0 0 0 0 0 0 0 0 0 0 0 0 0 0 0 0 0 0 0.25 0"/>
<feBlend mode="normal" in2="BackgroundImageFix" result="effect1_dropShadow"/>
<feBlend mode="normal" in="SourceGraphic" in2="effect1_dropShadow" result="shape"/>
</filter>
<linearGradient id="paint0_linear" x1="-24.8792" y1="-22.1414" x2="157.99" y2="417.392" gradientUnits="userSpaceOnUse">
<stop stop-color="#10A1E1"/>
<stop offset="1" stop-color="#1AEBB0"/>
</linearGradient>
<clipPath id="clip0">
<rect width="626" height="371" fill="white"/>
</clipPath>
</defs>
</svg>
