<svg width="626" height="371" viewBox="0 0 626 371" fill="none" xmlns="http://www.w3.org/2000/svg">
<g clip-path="url(#clip0)">
<rect width="626" height="371" fill="#11263F"/>
<rect x="-61.5525" y="11" width="801.024" height="212.026" transform="rotate(12.9312 -61.5525 11)" fill="#1E3456" fill-opacity="0.81"/>
<g clip-path="url(#clip1)">
<path fill-rule="evenodd" clip-rule="evenodd" d="M137.057 63.7646C138.831 63.7878 140.584 64.1604 142.214 64.861C143.845 65.5617 145.321 66.5768 146.56 67.8482C147.798 69.1197 148.773 70.6227 149.43 72.2712C150.087 73.9198 150.413 75.6817 150.389 77.4562L148.066 248.333C148.019 251.917 146.55 255.335 143.982 257.835C141.414 260.336 137.958 261.714 134.375 261.666C130.791 261.618 127.373 260.149 124.873 257.582C122.372 255.014 120.995 251.558 121.042 247.974L123.365 77.0974C123.388 75.3228 123.761 73.5702 124.461 71.9397C125.162 70.3091 126.177 68.8326 127.449 67.5945C128.72 66.3563 130.223 65.3808 131.872 64.7237C133.52 64.0666 135.282 63.7407 137.057 63.7646ZM65.2581 132.583C68.44 134.229 70.8379 137.072 71.9245 140.485C73.011 143.899 72.6973 147.605 71.0522 150.787L50.9285 189.703L89.8443 209.827C91.4519 210.623 92.8848 211.731 94.0595 213.087C95.2341 214.443 96.1269 216.019 96.6859 217.724C97.2448 219.429 97.4587 221.227 97.315 223.016C97.1713 224.804 96.6729 226.545 95.8488 228.139C95.0248 229.732 93.8917 231.146 92.5156 232.297C91.1395 233.448 89.5479 234.313 87.8338 234.842C86.1197 235.372 84.3174 235.554 82.5319 235.379C80.7465 235.205 79.0138 234.676 77.4348 233.824L26.5202 207.496C23.3383 205.85 20.9404 203.007 19.8538 199.594C18.7672 196.18 19.081 192.475 20.726 189.292L47.0545 138.378C48.7005 135.196 51.5428 132.798 54.9565 131.711C58.3702 130.625 62.0757 130.938 65.2581 132.583ZM175.793 97.4005C177.439 94.2186 180.281 91.8207 183.695 90.7342C187.109 89.6476 190.814 89.9613 193.997 91.6064L244.911 117.935C248.093 119.581 250.491 122.423 251.578 125.837C252.664 129.251 252.351 132.956 250.705 136.138L224.377 187.053C223.581 188.661 222.472 190.094 221.117 191.268C219.761 192.443 218.184 193.336 216.48 193.895C214.775 194.454 212.976 194.668 211.188 194.524C209.4 194.38 207.658 193.882 206.065 193.058C204.471 192.234 203.058 191.101 201.907 189.724C200.756 188.348 199.891 186.757 199.361 185.043C198.832 183.329 198.65 181.526 198.824 179.741C198.999 177.955 199.528 176.223 200.379 174.644L220.503 135.728L181.587 115.604C178.405 113.958 176.007 111.116 174.921 107.702C173.834 104.288 174.148 100.583 175.793 97.4005Z" fill="#459BFF"/>
</g>
<g filter="url(#filter0_d)">
<path d="M343.5 -56L819.5 -65V414H202L343.5 -56Z" fill="black" fill-opacity="0.06"/>
</g>
<path d="M332.761 -19.7746L335.907 -18.8253L207.679 406.255L204.533 405.306L332.761 -19.7746Z" fill="#459BFF"/>
<path d="M367.625 149.969H360.734V175H352.414V149.969H345.64V143.008H367.625V149.969ZM399.698 161.453C399.698 163.375 399.542 165.016 399.23 166.375C398.745 168.484 397.589 170.406 395.761 172.141C393.167 174.594 389.698 175.82 385.355 175.82C380.933 175.82 377.48 174.57 374.995 172.07C373.683 170.758 372.784 169.109 372.3 167.125C371.956 165.719 371.784 163.828 371.784 161.453V143.008H380.105V160.328C380.105 161.719 380.128 162.758 380.175 163.445C380.331 165.617 381.323 167.133 383.152 167.992C383.902 168.352 384.73 168.531 385.636 168.531C387.667 168.531 389.198 167.82 390.23 166.398C390.995 165.352 391.378 163.328 391.378 160.328V143.008H399.698V161.453ZM425.866 149.969H418.975V175H410.655V149.969H403.882V143.008H425.866V149.969ZM464.01 159.109C464.01 163.453 462.565 167.266 459.674 170.547C456.377 174.281 451.916 176.148 446.291 176.148C440.682 176.148 436.229 174.281 432.932 170.547C430.041 167.266 428.596 163.453 428.596 159.109C428.596 157.125 428.987 155.094 429.768 153.016C430.549 150.922 431.596 149.133 432.908 147.648C436.205 143.914 440.666 142.047 446.291 142.047C451.916 142.047 456.377 143.914 459.674 147.648C462.565 150.93 464.01 154.75 464.01 159.109ZM455.362 159.109C455.362 156.859 454.643 154.914 453.205 153.273C451.362 151.18 449.057 150.133 446.291 150.133C444.385 150.133 442.658 150.672 441.112 151.75C439.565 152.812 438.463 154.234 437.807 156.016C437.432 157.031 437.244 158.062 437.244 159.109C437.244 161.266 437.963 163.195 439.401 164.898C441.182 167.008 443.479 168.062 446.291 168.062C449.104 168.062 451.408 167.016 453.205 164.922C454.643 163.25 455.362 161.312 455.362 159.109ZM496.388 175H486.029L478.107 162.719V175H469.787V143.008H482.724C486.506 143.008 489.302 144.141 491.115 146.406C492.584 148.234 493.318 150.383 493.318 152.852C493.318 155.68 492.474 157.938 490.787 159.625C489.709 160.703 488.224 161.453 486.334 161.875L496.388 175ZM484.67 153.32C484.67 152.18 484.256 151.219 483.427 150.438C482.646 149.703 481.388 149.336 479.654 149.336H478.107V157.328H479.654C481.404 157.328 482.662 156.961 483.427 156.227C484.256 155.43 484.67 154.461 484.67 153.32ZM508.681 175H500.361V143.008H508.681V175ZM546.286 175H537.403L535.341 169.422H523.856L521.653 175H512.864L525.169 143.008H534.239L546.286 175ZM533.091 163.094L529.645 152.898L526.153 163.094H533.091ZM568.75 175H550.446V143.008H558.766V168.039H568.75V175ZM371.474 240H363.154L347.849 220.406V240H339.529V208.008H347.849L363.154 227.578V208.008H371.474V240ZM410.743 222.234C410.743 225.703 410.352 228.531 409.571 230.719C408.384 234.047 406.423 236.609 403.688 238.406C401.048 240.125 397.923 240.984 394.313 240.984C388.438 240.984 383.931 238.984 380.79 234.984C378.415 231.953 377.227 228.336 377.227 224.133C377.227 219.477 378.618 215.562 381.399 212.391C384.556 208.781 388.962 206.977 394.618 206.977C398.399 206.977 401.602 207.945 404.227 209.883C406.102 211.258 407.704 213.289 409.032 215.977L401.134 219.234C400.462 217.734 399.681 216.609 398.79 215.859C397.509 214.797 395.985 214.266 394.22 214.266C390.61 214.266 388.095 216.133 386.673 219.867C386.142 221.242 385.876 222.664 385.876 224.133C385.876 227.18 386.837 229.719 388.759 231.75C390.181 233.266 392.079 234.023 394.454 234.023C396.563 234.023 398.235 233.406 399.47 232.172C400.282 231.359 400.813 230.156 401.063 228.562H394.243V222.234H410.743ZM450.504 224.109C450.504 228.453 449.059 232.266 446.168 235.547C442.872 239.281 438.411 241.148 432.786 241.148C427.176 241.148 422.723 239.281 419.426 235.547C416.536 232.266 415.09 228.453 415.09 224.109C415.09 222.125 415.481 220.094 416.262 218.016C417.043 215.922 418.09 214.133 419.403 212.648C422.7 208.914 427.161 207.047 432.786 207.047C438.411 207.047 442.872 208.914 446.168 212.648C449.059 215.93 450.504 219.75 450.504 224.109ZM441.856 224.109C441.856 221.859 441.137 219.914 439.7 218.273C437.856 216.18 435.551 215.133 432.786 215.133C430.879 215.133 429.153 215.672 427.606 216.75C426.059 217.812 424.957 219.234 424.301 221.016C423.926 222.031 423.739 223.062 423.739 224.109C423.739 226.266 424.457 228.195 425.895 229.898C427.676 232.008 429.973 233.062 432.786 233.062C435.598 233.062 437.903 232.016 439.7 229.922C441.137 228.25 441.856 226.312 441.856 224.109ZM484.336 223.992C484.336 227.32 483.328 230.406 481.312 233.25C479.312 236.078 476.75 238.039 473.625 239.133C471.969 239.711 470.281 240 468.562 240H456.281V208.008H468.562C471.562 208.008 474.344 208.844 476.906 210.516C479.422 212.141 481.352 214.312 482.695 217.031C483.789 219.281 484.336 221.602 484.336 223.992ZM475.688 223.992C475.688 221.789 475.07 219.867 473.836 218.227C472.195 216.055 469.75 214.969 466.5 214.969H464.602V233.039H466.5C469.766 233.039 472.211 231.953 473.836 229.781C475.07 228.125 475.688 226.195 475.688 223.992ZM498.457 240H490.136V208.008H498.457V240ZM537.608 240H529.288L513.983 220.406V240H505.663V208.008H513.983L529.288 227.578V208.008H537.608V240ZM576.878 222.234C576.878 225.703 576.487 228.531 575.706 230.719C574.518 234.047 572.557 236.609 569.823 238.406C567.182 240.125 564.057 240.984 560.448 240.984C554.573 240.984 550.065 238.984 546.924 234.984C544.549 231.953 543.362 228.336 543.362 224.133C543.362 219.477 544.753 215.562 547.534 212.391C550.69 208.781 555.096 206.977 560.753 206.977C564.534 206.977 567.737 207.945 570.362 209.883C572.237 211.258 573.838 213.289 575.167 215.977L567.268 219.234C566.596 217.734 565.815 216.609 564.924 215.859C563.643 214.797 562.12 214.266 560.354 214.266C556.745 214.266 554.229 216.133 552.807 219.867C552.276 221.242 552.01 222.664 552.01 224.133C552.01 227.18 552.971 229.719 554.893 231.75C556.315 233.266 558.213 234.023 560.588 234.023C562.698 234.023 564.37 233.406 565.604 232.172C566.417 231.359 566.948 230.156 567.198 228.562H560.378V222.234H576.878Z" fill="#459BFF"/>
</g>
<defs>
<filter id="filter0_d" x="183" y="-73" width="643.5" height="505" filterUnits="userSpaceOnUse" color-interpolation-filters="sRGB">
<feFlood flood-opacity="0" result="BackgroundImageFix"/>
<feColorMatrix in="SourceAlpha" type="matrix" values="0 0 0 0 0 0 0 0 0 0 0 0 0 0 0 0 0 0 127 0" result="hardAlpha"/>
<feOffset dx="-6" dy="5"/>
<feGaussianBlur stdDeviation="6.5"/>
<feColorMatrix type="matrix" values="0 0 0 0 0 0 0 0 0 0 0 0 0 0 0 0 0 0 0.25 0"/>
<feBlend mode="normal" in2="BackgroundImageFix" result="effect1_dropShadow"/>
<feBlend mode="normal" in="SourceGraphic" in2="effect1_dropShadow" result="shape"/>
</filter>
<clipPath id="clip0">
<rect width="626" height="371" fill="white"/>
</clipPath>
<clipPath id="clip1">
<rect width="270.205" height="270.205" fill="white" transform="translate(-34 74.954) rotate(-17.6561)"/>
</clipPath>
</defs>
</svg>
